<?xml version="1.0" standalone="no"?>
<!DOCTYPE svg PUBLIC "-//W3C//DTD SVG 20010904//EN"
 "http://www.w3.org/TR/2001/REC-SVG-20010904/DTD/svg10.dtd">
<svg version="1.0" xmlns="http://www.w3.org/2000/svg"
 width="512.000000pt" height="512.000000pt" viewBox="0 0 512.000000 512.000000"
 preserveAspectRatio="xMidYMid meet">
<metadata>
Created by potrace 1.11, written by Peter Selinger 2001-2013
</metadata>
<g transform="translate(0.000000,512.000000) scale(0.100000,-0.100000)"
fill="#000000" stroke="none">
<path d="M0 2560 l0 -2560 2560 0 2560 0 0 2560 0 2560 -2560 0 -2560 0 0
-2560z m2276 2174 c162 -37 278 -100 338 -181 50 -67 101 -177 127 -272 21
-77 24 -81 58 -92 100 -32 225 -149 261 -246 12 -32 24 -79 27 -105 l6 -48
131 0 c247 -1 406 -59 406 -150 0 -45 -11 -55 -114 -111 l-78 -42 47 -18 c67
-25 85 -45 85 -90 0 -47 -9 -54 -145 -107 -55 -22 -122 -50 -149 -62 l-50 -23
30 -15 c50 -25 64 -43 64 -82 0 -54 -20 -66 -121 -74 -47 -3 -100 -9 -117 -12
-36 -7 -34 -14 25 -92 19 -25 45 -66 58 -91 13 -25 34 -56 47 -67 12 -12 97
-59 188 -104 91 -45 188 -97 215 -115 50 -32 115 -97 115 -115 0 -6 24 -43 54
-83 76 -103 124 -180 132 -213 4 -16 15 -47 25 -69 10 -22 19 -63 19 -92 0
-77 19 -201 40 -259 47 -129 64 -368 35 -494 -8 -36 -19 -116 -25 -179 -6 -62
-15 -122 -21 -133 -5 -10 -45 -46 -87 -80 -225 -179 -506 -322 -778 -394 -198
-53 -298 -64 -579 -64 -274 0 -371 10 -562 59 -275 71 -633 253 -804 409 -54
49 -55 52 -79 153 -21 88 -25 134 -28 304 -3 204 4 271 41 370 8 22 22 81 31
130 61 354 51 326 204 557 105 160 140 196 226 237 36 17 74 42 84 56 11 13
46 42 78 63 33 22 66 47 73 56 7 9 20 16 27 16 16 0 59 46 89 95 11 19 35 52
54 75 l34 41 -62 -7 c-51 -6 -65 -4 -81 11 -31 28 -26 83 12 129 31 37 31 39
12 53 -61 46 -245 113 -310 113 -32 0 -54 30 -54 76 0 39 3 44 49 73 27 18 73
40 102 50 l53 19 -70 44 c-83 53 -167 91 -254 114 -36 10 -71 22 -77 27 -7 5
-13 28 -13 51 0 37 6 47 48 87 26 25 66 60 89 77 79 61 239 122 320 122 l34 0
-43 61 c-65 93 -125 157 -187 198 -55 36 -56 37 -56 86 0 43 3 51 25 62 58 27
187 46 320 46 119 0 144 -3 210 -25 41 -15 77 -25 78 -23 8 8 -31 123 -59 174
-33 62 -37 106 -12 133 14 16 29 19 77 17 33 -2 84 -8 112 -15z"/>
<path d="M2143 4667 c1 -14 7 -25 12 -24 6 1 10 -8 9 -20 0 -12 3 -20 7 -17
11 6 42 -83 35 -101 -4 -10 -2 -14 5 -9 8 5 10 -3 7 -24 -3 -18 0 -29 5 -25 6
4 8 -12 5 -42 -4 -32 -3 -43 4 -34 6 10 8 1 6 -28 -2 -23 0 -39 4 -37 5 3 8 0
8 -5 0 -20 -21 -12 -61 23 -76 65 -228 103 -364 91 -94 -8 -228 -35 -240 -49
-6 -6 -9 -10 -7 -9 6 3 84 -47 109 -70 12 -11 20 -23 18 -27 -2 -4 8 -18 23
-31 l27 -24 -25 30 -25 30 33 -29 c17 -17 31 -37 30 -45 -2 -9 4 -16 12 -16 8
0 15 -8 15 -17 0 -9 4 -20 9 -25 5 -5 6 -2 1 6 -6 10 -4 12 4 7 7 -5 10 -14 7
-21 -3 -8 3 -19 12 -27 16 -12 16 -11 2 7 -14 19 -14 19 3 6 10 -8 16 -20 13
-27 -3 -8 0 -13 7 -11 7 1 11 -6 11 -15 -1 -10 2 -16 6 -13 4 3 11 -2 14 -11
3 -8 2 -12 -4 -9 -6 3 -7 -1 -4 -10 4 -9 9 -13 12 -11 5 6 31 -23 32 -35 0 -4
-44 -9 -97 -11 -81 -4 -112 -10 -178 -37 -44 -18 -104 -51 -133 -73 -30 -22
-61 -41 -70 -43 -10 -1 -16 -7 -15 -13 3 -11 -36 -49 -45 -44 -4 2 -8 -2 -10
-10 -2 -9 0 -8 7 2 6 8 11 10 11 4 0 -6 28 -19 63 -28 91 -25 211 -84 313
-154 133 -91 144 -102 106 -102 -62 0 -272 -81 -272 -105 0 -6 39 -19 87 -28
101 -21 213 -70 265 -116 54 -47 56 -65 14 -105 -20 -18 -38 -30 -41 -27 -3 3
-3 -3 1 -13 5 -13 4 -17 -4 -12 -7 4 -10 2 -7 -6 4 -10 34 -13 115 -13 126 0
150 -11 98 -43 -38 -25 -113 -109 -148 -167 -30 -50 -46 -66 -54 -57 -4 3 -4
-2 0 -12 6 -15 4 -17 -6 -11 -9 5 -11 4 -6 -4 4 -6 0 -13 -8 -16 -9 -3 -24 -8
-33 -12 -10 -3 -21 -6 -25 -5 -4 1 -5 -4 -3 -11 3 -7 -22 -27 -57 -47 -33 -19
-67 -45 -75 -57 -9 -13 -20 -20 -26 -16 -6 3 -7 1 -3 -6 5 -7 -9 -19 -41 -33
-26 -11 -66 -33 -88 -47 -22 -14 -44 -24 -48 -23 -5 1 -6 -1 -3 -6 3 -5 -2
-18 -10 -28 -9 -10 -12 -12 -8 -4 4 9 3 12 -2 7 -5 -5 -9 -16 -9 -25 0 -9 -5
-17 -12 -17 -6 0 -15 -4 -20 -9 -5 -5 -2 -6 6 -1 9 5 12 3 9 -6 -3 -8 -10 -13
-16 -12 -6 2 -9 -3 -6 -11 3 -8 0 -17 -7 -22 -8 -5 -10 -3 -4 7 5 8 4 11 -1 6
-5 -5 -9 -16 -9 -25 0 -9 -5 -16 -11 -15 -7 1 -11 -5 -10 -15 0 -9 -4 -16 -10
-15 -7 1 -11 -5 -10 -15 0 -9 -4 -16 -11 -15 -7 2 -10 -3 -7 -10 3 -8 -5 -25
-16 -38 -12 -13 -18 -18 -14 -10 4 9 3 12 -4 7 -6 -4 -8 -14 -5 -23 4 -11 3
-14 -5 -9 -8 4 -10 2 -6 -7 3 -8 0 -18 -7 -23 -8 -5 -10 -3 -4 7 5 8 4 11 0 6
-5 -4 -10 -17 -11 -30 -1 -12 -9 -47 -17 -77 -10 -37 -16 -47 -17 -30 -2 19
-4 16 -11 -14 -5 -22 -7 -44 -5 -50 2 -6 5 0 5 13 1 13 3 22 6 19 5 -5 -13
-119 -44 -288 -6 -30 -17 -71 -26 -90 -20 -49 -45 -205 -47 -303 l-2 -82 -6
90 -7 90 2 -95 c2 -95 28 -276 41 -289 3 -3 4 8 1 24 -3 17 -9 50 -12 75 -3
25 -9 59 -12 75 -3 17 -3 27 1 24 5 -5 47 -234 45 -247 -1 -4 -5 4 -10 18 -6
19 -7 15 -3 -15 3 -22 10 -48 15 -57 13 -23 130 -112 243 -182 84 -53 90 -55
108 -39 21 19 37 11 19 -10 -8 -11 -8 -17 1 -24 21 -15 188 -90 262 -117 l68
-26 -6 23 c-3 12 -8 31 -11 42 -4 14 1 24 16 33 20 13 27 8 106 -70 l85 -83
-7 40 c-6 37 -21 82 -40 127 -5 13 -3 18 8 18 10 0 39 -40 72 -99 38 -67 63
-101 78 -105 32 -8 37 -7 37 7 0 6 9 23 19 37 17 21 22 23 43 13 20 -9 24 -17
20 -42 -3 -25 -1 -31 14 -30 11 0 14 3 8 5 -6 2 -8 18 -6 35 3 20 0 34 -9 40
-20 12 -63 11 -76 -2 -8 -8 -25 9 -61 64 l-50 75 29 28 c16 15 29 23 29 17 0
-6 14 -25 32 -42 25 -25 40 -31 74 -31 67 0 69 -3 67 -73 -1 -34 -5 -77 -9
-95 l-7 -33 184 1 c209 2 384 19 367 36 -14 13 -61 13 -88 -1 -40 -21 -73 -19
-95 5 -23 26 -22 66 6 144 21 59 25 63 51 61 16 -1 31 -5 35 -9 17 -17 63 -4
86 24 29 34 26 64 -9 86 -20 14 -26 14 -53 -1 -17 -8 -31 -22 -31 -30 0 -8 -4
-15 -9 -15 -5 0 -7 -9 -4 -20 4 -16 0 -20 -21 -20 -17 0 -25 4 -21 11 4 6 14
8 22 5 11 -5 13 -2 9 10 -4 10 11 39 41 80 26 35 49 64 51 64 2 0 0 -4 -3 -10
-3 -5 -4 -10 0 -10 3 0 10 10 15 23 6 12 15 29 22 39 20 27 -7 50 -56 46 -36
-3 -45 -9 -76 -51 l-35 -47 -3 42 c-2 23 -8 48 -13 54 -6 7 -6 21 1 38 13 36
13 39 -5 32 -20 -7 -19 10 3 42 10 15 22 35 25 45 6 15 13 17 44 11 48 -8 50
-11 35 -34 -16 -27 -15 -30 9 -30 14 0 19 5 16 14 -3 8 1 17 9 20 8 3 14 13
14 22 0 11 5 14 16 10 9 -3 17 -6 19 -6 2 0 -3 -16 -11 -35 -17 -41 -18 -48
-3 -39 6 3 17 22 25 40 8 19 22 34 30 34 13 0 14 -3 5 -13 -8 -11 -5 -13 19
-9 17 2 33 8 36 13 3 5 11 9 18 9 11 0 11 -10 0 -52 -8 -29 -14 -65 -14 -80 0
-15 -5 -30 -10 -33 -6 -4 -8 -15 -5 -25 3 -11 -6 -69 -20 -130 -15 -61 -24
-114 -21 -117 3 -3 1 -13 -3 -22 -5 -9 -4 -42 2 -76 5 -33 12 -54 14 -47 3 6
9 12 14 12 6 0 5 -8 -1 -20 -6 -11 -15 -18 -20 -15 -6 4 -7 -1 -3 -11 4 -10 2
-15 -3 -12 -5 4 -18 0 -29 -8 -18 -13 -17 -14 9 -14 27 0 76 41 76 64 0 6 17
32 38 58 20 25 57 76 82 112 25 36 50 66 57 66 25 0 22 -20 -7 -66 -16 -26
-30 -52 -30 -57 0 -5 -11 -23 -25 -39 -35 -42 -68 -108 -54 -108 6 0 38 25 72
55 33 30 63 55 67 55 4 0 19 -11 34 -25 31 -28 41 -32 33 -11 -4 11 0 13 15
11 12 -3 37 3 57 11 110 47 144 66 148 84 4 16 9 18 25 9 11 -6 22 -9 24 -6 6
6 -82 63 -119 76 -26 10 -27 12 -12 34 11 17 25 24 51 25 42 2 55 8 49 25 -2
7 6 25 19 41 24 29 25 29 73 16 85 -23 114 -66 82 -120 l-19 -31 35 28 c23 18
34 35 33 48 -2 11 -8 20 -13 19 -6 0 -22 12 -37 28 -27 28 -27 28 -7 46 19 18
19 19 -16 20 -19 1 -35 -3 -35 -9 0 -6 9 -8 23 -4 20 6 20 6 7 -8 -13 -14 -22
-13 -85 8 -48 17 -94 25 -145 25 -41 1 -84 5 -95 9 -19 8 -18 9 8 21 32 16 35
36 5 46 -20 6 -19 7 11 20 18 8 37 11 42 8 5 -3 9 -2 8 3 -1 4 -1 16 0 26 2
27 19 20 23 -10 3 -25 6 -27 56 -28 29 -1 55 2 58 7 3 5 14 -2 25 -16 10 -13
36 -31 57 -39 21 -8 44 -22 51 -31 8 -9 21 -16 30 -16 10 1 4 7 -14 17 -39 21
-15 29 27 9 l33 -16 -23 20 c-22 18 -22 19 -3 29 16 9 20 6 25 -23 6 -33 28
-58 80 -90 27 -17 29 -17 23 -1 -4 9 -7 19 -7 21 0 2 -9 4 -19 4 -22 0 -58 41
-67 74 -3 12 -1 33 4 46 9 23 5 26 -57 52 -36 16 -67 28 -69 28 -2 0 -2 -10 0
-22 2 -19 10 -23 38 -24 77 -2 93 -33 31 -57 -46 -19 -91 -10 -128 25 -30 28
-30 75 2 122 13 20 20 36 15 36 -13 0 -27 -18 -58 -80 -27 -52 -31 -55 -62
-52 -19 1 -35 4 -36 5 -2 1 9 28 24 60 23 49 32 59 63 67 43 12 72 41 63 63
-5 14 0 15 33 10 47 -7 50 -10 36 -32 -10 -15 -7 -18 21 -18 75 -3 104 -14
117 -45 9 -23 10 -38 1 -60 l-11 -29 35 31 c43 37 66 38 93 3 12 -14 24 -23
27 -20 4 3 -4 19 -17 34 -20 24 -29 28 -55 22 -17 -3 -36 -9 -42 -13 -8 -5
-12 1 -12 18 0 14 -4 27 -10 31 -14 9 27 45 45 39 8 -3 12 -10 9 -15 -3 -5 0
-17 6 -26 11 -17 11 -17 6 -1 -7 23 18 24 36 2 7 -8 21 -24 30 -35 15 -15 17
-33 13 -101 -3 -72 -3 -77 6 -38 5 25 11 81 14 125 2 44 12 116 20 160 13 66
14 99 5 186 -10 104 -31 203 -50 239 -6 10 -10 31 -10 47 0 19 -3 24 -9 15 -6
-10 -12 -7 -25 13 -10 15 -20 24 -23 22 -3 -3 6 -21 20 -39 28 -37 60 -136 78
-245 17 -99 4 -139 -68 -215 -31 -32 -61 -58 -68 -58 -7 0 -20 -9 -30 -20 -10
-11 -25 -20 -34 -19 -10 0 -8 3 7 9 12 5 22 14 22 20 0 6 -4 8 -10 5 -5 -3
-10 -2 -10 3 0 5 14 16 30 24 17 8 42 30 56 49 23 31 24 39 18 104 -6 65 -23
125 -24 84 0 -9 -16 -33 -35 -55 -22 -24 -33 -32 -29 -19 4 11 14 26 22 32 9
7 13 16 9 19 -11 12 -35 -16 -42 -49 -4 -18 -16 -42 -28 -54 -11 -13 -18 -26
-14 -29 8 -8 108 86 117 111 6 14 8 6 8 -27 0 -26 3 -51 5 -56 10 -15 -26 -73
-55 -88 -16 -8 -28 -10 -28 -4 0 18 -29 10 -35 -10 -7 -21 -55 -29 -55 -9 0 6
-5 7 -12 2 -19 -11 -50 -4 -65 15 -11 15 -12 15 -13 2 0 -10 -11 -17 -32 -18
l-33 -2 30 18 c17 10 39 22 50 26 13 5 15 10 7 13 -6 3 -35 -9 -63 -27 -28
-17 -58 -29 -66 -26 -25 10 -47 77 -35 108 12 32 -1 46 -23 28 -12 -10 -15
-10 -15 2 0 20 21 38 45 38 11 0 26 9 32 20 15 23 69 52 103 56 14 1 40 5 59
10 l34 7 -7 -82 c-4 -48 -13 -93 -22 -107 -18 -27 -4 -33 20 -8 10 9 16 34 17
62 0 26 4 67 7 92 7 43 8 45 42 46 19 1 43 5 52 9 9 3 36 3 60 -2 43 -8 43 -9
54 -63 9 -50 11 -52 16 -25 4 17 10 39 13 50 6 16 5 17 -4 5 -9 -13 -12 -12
-17 7 -6 23 -15 28 -77 39 -23 4 -43 2 -51 -5 -8 -7 -17 -8 -20 -3 -6 11 -66
3 -66 -9 0 -4 -16 -5 -35 -2 -20 3 -41 1 -48 -6 -22 -17 -29 0 -11 27 20 30
10 41 -16 17 -16 -14 -20 -15 -20 -4 0 17 19 47 73 112 22 26 37 51 34 54 -7
6 -67 -53 -105 -102 -22 -29 -22 -29 -17 -5 15 61 26 75 76 98 73 32 81 30 53
-13 -21 -32 -7 -32 36 0 19 14 48 25 64 26 30 1 30 1 6 8 -18 5 -26 15 -28 35
l-4 29 -19 -32 c-18 -30 -33 -39 -42 -23 -7 10 18 124 33 153 7 13 26 40 42
60 17 21 29 47 28 60 -3 39 -1 51 11 44 12 -8 3 -57 -18 -99 -10 -19 -11 -31
-5 -35 6 -4 17 -28 23 -54 13 -46 12 -47 -16 -78 -22 -23 -24 -28 -9 -19 12 8
34 35 50 62 29 50 38 57 48 36 3 -7 4 16 2 52 -5 67 -55 211 -56 160 -1 -24
-1 -24 -15 -6 -12 16 -15 17 -15 4 0 -8 -7 -21 -15 -28 -22 -18 -59 1 -76 39
-8 17 -17 31 -20 31 -3 0 -24 -17 -47 -38 -47 -43 -58 -73 -17 -46 14 9 25 22
25 30 0 7 9 18 19 23 29 16 45 -8 31 -45 -18 -45 -40 -64 -77 -64 -18 0 -33
-4 -33 -10 0 -16 48 -12 76 6 14 10 32 30 40 45 13 26 17 28 37 16 12 -6 23
-12 24 -13 5 -1 -23 -81 -39 -114 -13 -26 -17 -30 -18 -15 -1 18 -17 -14 -49
-100 -13 -32 -56 -92 -45 -62 8 23 -8 22 -29 -3 -17 -20 -54 -29 -42 -10 3 6
13 10 21 10 21 0 17 18 -7 31 -17 9 -20 17 -14 45 6 35 -2 43 -23 22 -18 -18
-14 3 6 37 20 33 18 67 -3 63 -8 -2 -14 0 -14 5 -3 30 1 47 10 47 6 0 13 -9
16 -20 7 -25 19 -26 33 -1 14 26 13 38 -2 23 -20 -20 -28 -14 -18 14 15 38 12
42 -11 15 -28 -35 -34 -20 -10 28 12 23 30 85 41 138 18 88 18 99 4 110 -16
11 -16 43 0 54 15 11 -2 39 -19 33 -8 -3 -15 -1 -15 6 0 6 5 8 10 5 6 -3 10 0
10 7 1 8 7 5 16 -7 8 -11 12 -30 10 -41 -4 -14 0 -24 9 -27 15 -6 15 -62 1
-102 -5 -14 -3 -13 7 4 17 28 28 16 16 -16 -5 -15 -14 -21 -24 -17 -8 3 -15 1
-15 -6 0 -6 5 -8 10 -5 14 9 12 -1 -6 -37 -18 -36 -27 -105 -11 -89 6 6 12 24
14 41 4 42 50 113 69 106 10 -4 16 3 20 24 9 41 29 56 51 39 17 -13 -28 52
-54 79 -7 7 -13 19 -13 26 0 21 -40 65 -83 93 -23 14 -124 68 -226 120 -106
54 -196 106 -208 121 -13 15 -39 55 -58 89 -19 34 -46 75 -59 90 -13 15 -33
47 -45 70 -11 23 -31 47 -42 54 -12 6 -17 14 -13 19 12 10 119 28 224 36 47 3
89 10 94 14 5 5 -29 27 -75 50 -78 40 -82 43 -64 57 37 28 210 110 303 144 50
18 92 37 92 42 0 14 -70 38 -167 56 -51 10 -96 21 -99 24 -4 3 9 12 27 20 73
30 250 122 276 143 l27 22 -53 26 c-82 42 -184 58 -346 54 l-140 -3 -7 65
c-19 168 -103 278 -263 342 l-57 23 -32 105 c-34 109 -76 200 -120 260 -54 72
-224 150 -363 165 -61 7 -61 7 -60 -18z m205 -37 c60 -15 142 -63 186 -110 56
-59 84 -115 131 -260 21 -63 42 -121 48 -128 5 -7 7 -15 4 -18 -5 -5 -144 -43
-159 -44 -3 0 -12 24 -18 53 -42 174 -138 386 -217 477 -30 34 -41 51 -28 46
11 -5 35 -12 53 -16z m-321 -254 c119 -32 204 -99 257 -204 31 -60 32 -79 9
-105 -13 -15 -14 -18 -3 -12 8 4 0 -8 -19 -28 l-34 -36 -42 57 c-85 116 -209
215 -345 275 -48 21 -56 27 -30 22 19 -4 49 -9 65 -12 108 -19 279 -130 280
-181 0 -10 7 -16 15 -15 19 3 55 -60 47 -81 -8 -19 6 -21 21 -3 8 10 -2 30
-40 81 -53 70 -125 134 -188 166 -58 30 -188 60 -256 60 -67 0 -96 16 -42 23
82 10 256 6 305 -7z m888 -351 c72 -71 122 -198 113 -285 -2 -28 -6 -19 -20
48 -23 115 -51 166 -132 246 -55 54 -63 65 -37 52 18 -10 53 -37 76 -61z
m-1000 -113 c36 -12 54 -25 64 -46 14 -31 18 -109 6 -145 -6 -20 -9 -21 -23
-8 -27 24 -153 84 -202 97 -25 7 -74 12 -110 13 l-65 0 40 13 c52 16 78 17 93
2 9 -9 15 -9 25 1 10 10 9 11 -5 6 -11 -5 -18 -2 -18 5 0 17 152 8 158 -9 2
-6 7 -9 12 -6 11 7 71 -15 65 -24 -2 -4 2 -8 10 -8 29 0 14 19 -32 39 -59 26
-200 36 -270 19 -27 -7 -79 -28 -116 -47 -38 -20 -71 -34 -73 -32 -7 8 123 87
177 108 105 42 186 49 264 22z m654 -259 c2 -1 -20 -26 -50 -55 -66 -64 -135
-154 -174 -226 -30 -56 -44 -62 -27 -12 6 17 9 37 6 45 -9 21 13 137 38 202
11 31 39 76 61 100 l40 43 51 -47 c28 -26 53 -48 55 -50z m805 49 l40 -7 -65
-13 c-81 -16 -160 -39 -224 -63 l-50 -20 -17 22 c-10 11 -18 31 -18 44 0 19 8
24 48 33 55 11 230 14 286 4z m-576 -78 c23 -19 42 -41 42 -49 0 -7 -50 -52
-110 -100 -61 -48 -127 -110 -146 -137 -20 -27 -39 -47 -41 -44 -14 14 80 150
160 233 50 51 86 93 81 93 -6 0 -30 -20 -54 -45 -24 -24 -47 -42 -52 -39 -4 3
-11 -3 -15 -13 -6 -17 -66 -107 -86 -128 -17 -18 35 79 80 150 46 71 81 115
93 115 3 0 25 -16 48 -36z m-208 0 c0 -3 -13 -44 -30 -90 -36 -103 -54 -204
-45 -263 l7 -43 35 53 c50 75 65 91 175 180 102 84 108 84 108 13 0 -74 -23
-104 -143 -187 -61 -43 -119 -82 -127 -87 -28 -17 -1 -22 31 -6 23 12 36 13
45 5 7 -6 19 -7 28 -2 14 8 16 12 16 33 0 16 103 70 133 70 26 0 28 2 21 34
-5 30 -2 38 28 65 18 17 36 31 39 31 8 0 -3 -52 -20 -92 -6 -16 -9 -28 -7 -28
17 0 76 27 94 43 25 23 31 47 6 26 -9 -8 -5 6 11 36 31 60 40 69 31 33 -3 -16
-2 -28 3 -28 31 0 5 -124 -49 -230 -23 -44 -83 -100 -109 -100 -33 0 -42 -69
-31 -221 6 -73 8 -147 4 -164 -28 -132 -143 -202 -317 -193 -126 7 -228 62
-273 150 -26 49 -44 157 -44 263 0 55 -3 110 -6 122 -4 14 -40 46 -86 79 -64
44 -84 65 -100 101 -38 87 -34 203 8 203 16 0 17 -3 34 -70 8 -28 26 -58 51
-84 22 -21 41 -37 44 -35 2 2 -5 29 -15 59 -20 57 -25 100 -12 100 4 0 29 -23
56 -50 30 -31 58 -50 72 -50 12 0 29 -7 38 -15 8 -8 21 -15 28 -15 19 0 38
-21 38 -42 0 -14 8 -18 35 -18 20 0 47 -8 61 -17 22 -14 27 -14 35 -2 5 8 9
21 9 29 -1 12 -3 11 -11 -3 -9 -16 -17 -12 -71 38 -34 30 -65 55 -70 55 -20 0
-4 41 41 110 41 63 93 122 173 197 14 13 28 17 28 7z m-380 -105 c-28 -61 -40
-77 -40 -58 0 15 6 44 14 65 7 22 11 46 8 54 -3 8 -1 12 3 8 4 -4 17 -1 28 7
12 8 22 13 24 11 2 -1 -15 -41 -37 -87z m740 -19 c0 -15 -90 -110 -104 -110
-2 0 11 26 30 57 27 46 33 64 28 88 l-6 30 26 -24 c14 -14 26 -32 26 -41z
m-677 -92 c6 -42 2 -45 -31 -22 -27 19 -30 69 -5 104 l17 24 7 -34 c4 -19 9
-52 12 -72z m-353 -28 c-10 -42 -15 -50 -29 -44 -9 4 -39 12 -68 18 -28 6 -54
14 -58 18 -3 3 -24 4 -46 1 -101 -14 12 30 132 50 41 7 76 12 78 10 2 -1 -2
-25 -9 -53z m1350 45 c92 -10 170 -27 170 -38 0 -6 -21 -7 -57 -2 -189 23
-197 24 -231 8 -39 -19 -55 -38 -22 -28 17 5 21 4 15 -5 -5 -9 -4 -11 4 -6 6
4 9 11 6 16 -9 15 56 21 120 12 33 -5 52 -10 42 -11 -11 0 -73 -14 -139 -31
-65 -16 -122 -30 -124 -30 -3 0 3 14 13 31 25 44 100 100 127 94 11 -2 46 -6
76 -10z m-990 -87 c0 -5 -11 -1 -25 8 -14 9 -25 18 -25 20 0 2 11 -2 25 -8 14
-6 25 -15 25 -20z m854 -198 c58 -24 59 -34 4 -24 -52 9 -58 8 -83 -1 -18 -7
-17 -5 4 18 14 15 26 27 27 27 1 0 23 -9 48 -20z m-214 -115 c27 -14 57 -37
66 -53 10 -15 34 -52 54 -82 20 -30 49 -77 65 -105 15 -27 36 -59 47 -71 27
-30 40 -82 23 -91 -8 -5 -19 -19 -25 -33 l-11 -25 5 24 c3 13 2 38 -2 55 -6
28 -7 25 -13 -24 -3 -30 -2 -60 2 -66 10 -12 4 -148 -7 -166 -5 -8 -10 -6 -16
8 -6 15 -7 13 -2 -6 3 -14 8 -57 11 -97 l6 -72 28 4 c22 3 29 -1 30 -13 0 -11
2 -12 6 -4 7 17 88 15 123 -3 16 -9 39 -32 49 -53 12 -22 20 -30 21 -19 0 9
-4 25 -9 35 -5 9 -12 25 -15 35 -3 10 -10 16 -16 12 -13 -8 -52 14 -45 26 4 6
13 5 25 -1 30 -16 37 -11 13 9 -15 12 -18 22 -12 32 7 12 9 12 9 -1 1 -12 3
-11 11 3 11 19 29 23 29 6 0 -5 -4 -8 -9 -5 -14 9 -21 -20 -8 -33 15 -15 27
-14 27 3 0 8 4 18 10 21 6 4 8 -7 4 -27 -4 -24 -3 -29 4 -19 6 8 16 43 22 78
13 68 32 98 24 36 -3 -21 -21 -95 -40 -164 -18 -69 -35 -142 -36 -162 -3 -35
-4 -37 -33 -32 -16 3 -85 9 -152 14 -68 4 -126 10 -129 14 -4 4 -2 12 3 19 6
7 13 25 17 40 3 14 9 33 12 42 3 9 1 16 -5 16 -17 0 -148 -217 -137 -228 3 -3
6 0 6 6 0 7 4 12 8 12 5 0 17 -53 27 -117 l19 -118 23 100 24 100 79 2 c72 3
80 1 94 -19 13 -19 16 -20 16 -5 0 17 16 17 67 2 7 -2 15 -28 19 -57 l8 -53 9
40 c7 25 6 40 0 42 -5 2 -8 18 -6 36 2 24 1 27 -5 13 -8 -18 -10 -17 -19 11
-11 29 -10 30 19 31 29 1 30 0 26 -44 -2 -35 0 -44 12 -42 8 2 17 19 21 41 8
48 12 52 48 37 17 -6 36 -10 43 -7 7 3 -8 11 -34 18 -54 15 -67 41 -18 36 17
-2 36 -9 42 -15 6 -6 17 -8 24 -5 17 6 17 13 0 -111 -16 -124 -18 -168 -6
-161 5 3 12 0 16 -6 4 -7 -4 -22 -19 -35 -15 -13 -27 -28 -27 -34 0 -5 -8 -10
-17 -10 -12 0 -14 -3 -6 -8 11 -7 9 -24 -24 -193 -4 -20 -10 -25 -24 -22 -10
3 -19 6 -19 7 0 0 7 37 15 81 36 194 46 294 35 335 -19 72 -36 44 -31 -51 3
-50 -18 -266 -30 -311 -10 -38 -39 -52 -55 -27 -9 15 -72 4 -95 -17 -11 -9
-19 -13 -19 -9 0 5 -11 -2 -24 -14 -20 -19 -28 -21 -44 -12 -37 20 -35 -7 2
-42 34 -33 35 -33 40 -11 9 33 51 80 85 94 23 9 34 9 53 -1 12 -7 29 -12 36
-11 6 2 12 -7 12 -19 0 -17 3 -19 14 -10 12 10 46 6 46 -5 0 -3 -7 -21 -15
-41 -12 -28 -18 -34 -27 -25 -18 18 -25 15 -32 -16 -4 -15 -14 -51 -22 -80
-13 -48 -17 -52 -37 -46 -12 4 -35 8 -52 9 -57 3 -62 5 -72 28 -6 13 -9 37 -7
53 l5 29 -13 -27 c-23 -48 -106 -95 -122 -69 -11 17 -33 13 -57 -11 -18 -19
-21 -20 -15 -5 3 10 6 23 6 29 0 6 7 7 16 4 12 -5 15 -2 10 11 -4 10 3 26 21
45 15 15 22 28 16 28 -6 0 -14 11 -17 25 -4 14 -20 34 -36 43 l-29 18 35 0
c30 0 34 -3 34 -27 0 -18 11 -36 33 -55 26 -22 28 -26 10 -20 -15 5 -23 3 -23
-4 0 -16 30 -24 42 -12 8 8 2 21 -21 47 -17 20 -31 41 -31 48 0 26 39 74 70
87 29 12 37 12 63 -3 16 -10 32 -16 34 -13 3 2 -10 12 -27 21 -36 18 -74 14
-103 -13 -17 -15 -19 -15 -28 0 -12 22 -71 41 -102 33 -14 -4 -38 -19 -53 -33
l-29 -27 -31 32 -31 32 18 53 c9 29 14 55 9 58 -4 3 12 47 36 99 41 87 49 120
23 94 -18 -18 -91 -207 -114 -298 -13 -49 -28 -124 -35 -165 -11 -73 -20 -102
-20 -64 0 74 52 287 103 420 40 105 167 352 238 464 91 143 93 159 38 325 -21
63 -31 117 -35 178 -2 49 -7 93 -10 98 -3 6 -25 7 -50 3 -30 -4 -44 -3 -44 5
0 6 7 14 15 17 8 4 15 12 15 20 0 8 -7 14 -15 14 -8 0 -15 4 -15 9 0 15 21 25
29 14 3 -6 17 -13 31 -17 l25 -7 -21 18 c-14 12 -23 36 -27 71 -3 29 -2 50 2
47 9 -5 25 24 17 32 -2 2 -13 5 -25 6 -25 2 -25 1 -5 32 16 25 7 34 -13 14
-10 -10 -33 7 -72 54 -18 23 -9 21 49 -8z m-14 -90 c-9 -34 -12 -31 -19 19 -6
36 -5 38 10 24 11 -11 13 -25 9 -43z m-771 -12 c-4 -29 0 -49 20 -88 13 -27
25 -53 25 -56 0 -3 -23 17 -51 43 l-50 49 26 45 c14 24 28 44 31 44 3 0 3 -17
-1 -37z m-61 -15 c-22 -36 -126 -178 -130 -178 -6 0 -5 1 39 66 18 28 46 67
62 87 30 37 43 48 29 25z m862 -24 c4 -14 2 -30 -4 -36 -8 -8 -11 -6 -10 8 0
10 -3 27 -7 37 -4 10 -3 17 4 17 6 0 14 -12 17 -26z m-26 -4 c0 -5 -5 -10 -11
-10 -5 0 -7 5 -4 10 3 6 8 10 11 10 2 0 4 -4 4 -10z m20 -92 c-12 -13 -28 -36
-37 -51 -8 -16 -17 -26 -20 -23 -11 10 7 52 39 91 25 29 34 35 36 22 2 -9 -6
-27 -18 -39z m-797 0 c85 -105 102 -150 91 -245 -5 -49 -10 -63 -23 -63 -10 0
-12 -3 -5 -8 15 -10 13 -42 -3 -42 -12 0 -17 -13 -14 -33 1 -5 -2 -6 -6 -4 -5
2 -17 1 -28 -4 -17 -6 -17 -8 -2 -8 22 -1 22 -13 -2 -28 -17 -10 -20 -9 -25
13 -4 14 -4 29 -1 34 3 5 -11 26 -30 47 -41 45 -43 41 -11 -18 13 -25 27 -72
31 -104 9 -73 15 -86 102 -202 67 -92 83 -123 120 -237 10 -33 25 -62 33 -64
12 -4 13 -2 3 9 -7 9 -19 40 -27 70 -8 30 -17 62 -21 72 -5 11 -3 17 6 17 7 0
3 7 -9 16 -26 18 -30 39 -6 30 14 -5 15 -4 4 9 -7 9 -15 13 -18 10 -9 -8 -41
36 -36 49 3 8 -4 16 -15 19 -14 3 -19 10 -15 21 3 9 1 16 -6 16 -6 0 -8 -6 -5
-12 4 -7 -3 -2 -14 12 -41 49 -13 48 52 -3 43 -34 50 -23 9 16 -15 15 -42 28
-60 30 -47 5 -59 20 -38 51 9 14 16 33 15 43 0 12 -4 8 -11 -10 -5 -15 -14
-25 -19 -22 -5 4 -6 -2 -2 -12 4 -13 3 -15 -6 -7 -6 6 -14 27 -18 47 -5 32 -2
37 25 51 16 8 39 28 50 43 l20 27 7 -35 c4 -19 18 -59 32 -88 13 -30 21 -61
18 -68 -2 -8 -1 -12 4 -9 5 3 12 -1 15 -10 3 -8 2 -12 -4 -9 -6 3 -7 -1 -4 -9
3 -9 11 -13 16 -10 6 4 8 1 6 -7 -3 -8 5 -32 17 -54 27 -48 53 -217 35 -223
-7 -3 -6 -8 3 -16 12 -9 44 -148 53 -226 2 -14 9 -74 18 -135 23 -171 26 -215
15 -215 -12 0 -25 34 -32 87 -4 36 -3 41 12 36 12 -5 10 1 -6 19 -23 24 -32
65 -13 53 6 -3 10 -2 10 3 0 6 -7 12 -15 16 -9 3 -15 18 -15 36 0 16 -12 74
-26 127 -19 72 -23 102 -16 114 9 14 7 16 -9 12 -15 -4 -19 0 -19 21 0 14 -5
26 -11 26 -6 0 -8 7 -5 16 6 16 -29 52 -46 47 -3 -2 -47 41 -97 93 -62 66 -92
106 -96 127 -4 18 -2 74 3 126 11 108 6 130 -54 238 l-37 66 29 -7 c28 -6 28
-6 9 9 -11 9 -25 13 -32 11 -8 -3 -15 8 -19 30 -9 47 -40 84 -71 84 -31 0 -27
8 8 14 13 2 26 5 29 6 3 2 9 2 14 1 5 -1 13 3 17 10 5 9 16 7 43 -9 34 -20 37
-20 43 -4 4 9 11 20 17 24 15 10 -12 38 -37 38 -19 0 -19 1 -2 20 12 14 25 18
42 14 18 -5 22 -3 17 10 -12 30 15 16 49 -26z m-236 -158 c6 -16 10 -30 7 -30
-2 0 -10 14 -19 30 -9 17 -12 30 -7 30 4 0 13 -13 19 -30z m1447 -147 c-10
-15 -26 -45 -36 -65 -19 -42 -23 -45 -32 -22 -3 8 -2 12 3 9 5 -3 12 -1 16 5
3 5 1 10 -5 10 -8 0 -7 5 2 13 7 7 24 30 38 50 13 20 26 34 29 32 2 -3 -5 -17
-15 -32z m-1544 17 c0 -5 -2 -10 -4 -10 -3 0 -8 5 -11 10 -3 6 -1 10 4 10 6 0
11 -4 11 -10z m1494 -2 c-26 -44 -37 -57 -45 -52 -5 3 1 18 13 34 23 29 46 41
32 18z m113 -22 c-13 -14 -48 -74 -78 -132 -29 -58 -55 -101 -57 -96 -9 28
139 275 155 258 2 -2 -7 -15 -20 -30z m84 5 c13 -10 31 -21 39 -24 10 -4 8 -6
-6 -6 -12 -1 -28 6 -35 15 -7 9 -22 20 -34 24 -15 7 -16 9 -4 9 9 1 27 -7 40
-18z m-308 -11 c-3 -11 -7 -20 -9 -20 -2 0 -4 9 -4 20 0 11 4 20 9 20 5 0 7
-9 4 -20z m282 -10 c3 -5 1 -10 -4 -10 -6 0 -11 5 -11 10 0 6 2 10 4 10 3 0 8
-4 11 -10z m-262 -15 c-3 -9 -8 -14 -10 -11 -3 3 -2 9 2 15 9 16 15 13 8 -4z
m227 5 c0 -5 -5 -10 -11 -10 -5 0 -7 -4 -4 -10 3 -5 -1 -10 -9 -10 -19 0 -21
11 -4 28 15 15 28 16 28 2z m-1896 -15 c-4 -8 -11 -15 -16 -15 -6 0 -5 6 2 15
7 8 14 15 16 15 2 0 1 -7 -2 -15z m1627 -48 c-13 -13 -15 11 -4 40 7 16 8 15
11 -6 2 -13 -1 -28 -7 -34z m81 29 c6 4 5 -2 -1 -15 -15 -28 -19 -27 -18 7 0
15 2 21 4 14 3 -6 9 -9 15 -6z m240 -8 c-6 -6 -15 -8 -19 -4 -4 4 -1 11 7 16
19 12 27 3 12 -12z m-1830 -15 c29 -31 52 -74 62 -115 10 -45 -11 -32 -30 18
-9 25 -30 63 -46 85 -32 45 -24 52 14 12z m-148 -7 c-3 -9 -10 -13 -16 -10 -5
3 -4 12 3 20 15 18 22 13 13 -10z m1553 2 c-3 -8 -6 -5 -6 6 -1 11 2 17 5 13
3 -3 4 -12 1 -19z m463 12 c0 -5 -8 -10 -17 -10 -15 0 -16 2 -3 10 19 12 20
12 20 0z m-1983 -37 c-3 -10 -5 -4 -5 12 0 17 2 24 5 18 2 -7 2 -21 0 -30z
m480 -30 c-2 -16 -4 -5 -4 22 0 28 2 40 4 28 2 -13 2 -35 0 -50z m-430 10 c1
-22 -1 -24 -8 -10 -6 9 -7 22 -4 27 9 14 10 13 12 -17z m1440 -73 c17 -25 17
-25 -3 -7 -11 9 -23 15 -26 12 -10 -10 -40 34 -32 47 5 7 7 22 6 33 -2 11 6 2
17 -20 11 -22 28 -51 38 -65z m127 86 c-3 -8 0 -17 5 -21 6 -3 9 -11 6 -16 -4
-5 -1 -9 4 -9 6 0 11 -4 11 -10 0 -5 -7 -10 -15 -10 -8 0 -15 -8 -16 -17 -1
-10 -4 -4 -9 14 -8 36 -2 83 11 83 5 0 6 -6 3 -14z m56 -5 c-7 -14 -7 -27 2
-46 9 -19 9 -28 0 -37 -17 -17 -15 -33 2 -19 8 7 17 8 20 3 3 -6 -3 -12 -14
-15 -12 -3 -24 1 -31 11 -7 12 -12 14 -15 5 -3 -7 -12 -13 -20 -13 -11 0 -10
4 4 18 9 10 25 16 35 14 16 -4 16 -2 3 28 -12 29 -11 35 3 51 20 24 24 24 11
0z m61 -4 c-10 -9 -11 -8 -5 6 3 10 9 15 12 12 3 -3 0 -11 -7 -18z m249 13 c0
-5 -4 -10 -10 -10 -5 0 -10 5 -10 10 0 6 5 10 10 10 6 0 10 -4 10 -10z m-100
-9 c0 -13 -31 -43 -38 -36 -3 3 3 14 14 24 22 23 24 24 24 12z m47 -53 c-2
-13 -4 -5 -4 17 -1 22 1 32 4 23 2 -10 2 -28 0 -40z m202 2 c0 -9 -4 -8 -9 5
-5 11 -9 27 -9 35 0 9 4 8 9 -5 5 -11 9 -27 9 -35z m-2136 19 c29 -33 58 -89
47 -89 -6 0 -13 8 -16 18 -10 30 -22 47 -33 45 -6 -2 -10 0 -10 5 3 19 -2 26
-11 12 -7 -12 -9 -10 -7 8 2 27 8 28 30 1z m1712 11 c3 -5 -1 -10 -10 -10 -9
0 -13 5 -10 10 3 6 8 10 10 10 2 0 7 -4 10 -10z m275 -1 c0 -5 -4 -7 -10 -4
-5 3 -10 1 -10 -4 0 -6 -4 -11 -10 -11 -5 0 -10 7 -10 15 0 8 9 15 20 15 11 0
20 -5 20 -11z m-258 -31 c-7 -7 -12 -8 -12 -2 0 14 12 26 19 19 2 -3 -1 -11
-7 -17z m-1662 -9 c0 -6 -4 -7 -10 -4 -5 3 -10 11 -10 16 0 6 5 7 10 4 6 -3
10 -11 10 -16z m1911 -17 c-22 -7 -24 -7 -27 10 -1 11 3 15 12 11 8 -3 15 1
15 8 1 8 4 5 6 -6 3 -10 0 -21 -6 -23z m-2057 4 c-2 -19 0 -20 25 -4 15 9 24
8 45 -5 14 -10 26 -24 26 -32 0 -17 -31 -28 -55 -18 -15 5 -17 3 -10 -13 4
-10 10 -28 12 -40 4 -19 7 -18 38 13 18 18 41 33 52 33 29 0 63 -29 61 -53 0
-12 3 -31 7 -42 8 -19 6 -18 -17 3 -13 12 -30 22 -36 22 -19 0 -44 -47 -37
-69 9 -28 51 -38 74 -17 10 9 20 16 23 16 13 0 18 -81 6 -102 -7 -13 -14 -25
-15 -27 -1 -2 -18 6 -38 18 -20 11 -43 21 -51 21 -25 0 -74 56 -74 85 l0 26
-29 -22 c-35 -26 -76 -20 -86 12 -5 15 -10 18 -18 10 -31 -31 -50 7 -26 51 9
17 13 18 20 7 7 -12 9 -11 10 1 1 8 2 20 4 25 1 6 3 17 3 26 1 9 16 35 33 58
29 41 55 50 53 17z m562 -3 c-10 -10 -19 5 -10 18 6 11 8 11 12 0 2 -7 1 -15
-2 -18z m944 -3 c0 -10 -31 -23 -38 -15 -8 7 19 35 29 29 5 -3 9 -9 9 -14z
m-1180 -6 c0 -8 -5 -12 -10 -9 -6 4 -8 11 -5 16 9 14 15 11 15 -7z m38 -9 c-3
-3 -9 2 -12 12 -6 14 -5 15 5 6 7 -7 10 -15 7 -18z m1730 -101 c-2 -46 -9 -89
-16 -96 -6 -8 -13 -31 -15 -51 -4 -37 -17 -64 -17 -35 0 15 -11 18 -62 20 -32
1 -35 14 -12 46 16 23 15 26 -10 16 -9 -3 -16 -13 -16 -22 0 -8 -3 -12 -6 -9
-8 8 57 217 67 217 4 0 9 -9 12 -20 5 -21 29 -29 25 -9 -2 6 3 14 11 16 9 4
11 0 7 -15 -4 -11 -2 -23 4 -27 6 -3 10 4 11 17 1 13 2 28 4 33 1 6 3 17 5 25
6 38 12 -31 8 -106z m-1921 84 c-3 -8 -6 -5 -6 6 -1 11 2 17 5 13 3 -3 4 -12
1 -19z m1893 12 c0 -5 -4 -10 -10 -10 -5 0 -10 5 -10 10 0 6 5 10 10 10 6 0
10 -4 10 -10z m-1855 -9 c3 -5 1 -12 -5 -16 -5 -3 -10 1 -10 9 0 18 6 21 15 7z
m221 -14 c5 -76 27 -205 40 -224 20 -31 19 -33 -26 -33 -39 0 -40 1 -33 28 4
15 7 78 6 140 -2 61 1 112 5 112 4 0 8 -11 8 -23z m1177 -29 c3 -9 -1 -19 -9
-22 -8 -3 -13 -2 -13 2 4 24 -4 40 -21 45 -11 3 -20 10 -20 16 0 16 58 -21 63
-41z m-1346 36 c-3 -3 -12 -4 -19 -1 -8 3 -5 6 6 6 11 1 17 -2 13 -5z m1253
-4 c0 -5 -5 -10 -11 -10 -5 0 -7 5 -4 10 3 6 8 10 11 10 2 0 4 -4 4 -10z
m-1015 -20 c3 -5 1 -10 -4 -10 -6 0 -11 5 -11 10 0 6 2 10 4 10 3 0 8 -4 11
-10z m961 -36 c-15 -14 -30 -24 -33 -21 -3 3 8 17 23 31 38 32 46 23 10 -10z
m86 -47 c-15 -25 -18 -26 -29 -11 -6 9 -17 13 -23 9 -8 -5 -6 -13 6 -26 16
-18 16 -21 -6 -67 -21 -43 -26 -48 -52 -44 -23 4 -26 7 -17 18 13 15 9 17 -15
8 -23 -9 -19 -29 9 -48 14 -9 25 -12 25 -6 0 5 4 10 10 10 5 0 -9 -38 -32 -85
-23 -47 -46 -85 -51 -85 -5 0 -6 7 -3 16 3 8 2 13 -3 10 -10 -6 -7 66 4 83 4
7 11 36 15 64 5 29 11 61 13 72 3 11 6 25 6 32 1 11 41 6 41 -6 0 -3 11 -6 25
-6 26 0 31 10 16 34 -6 10 -19 12 -40 8 -20 -4 -30 -3 -26 3 3 6 14 10 23 10
10 0 24 9 31 19 8 11 21 17 30 13 9 -3 13 -2 9 3 -4 4 0 14 9 20 14 11 19 10
29 -3 10 -13 9 -23 -4 -45z m-1022 9 c0 -26 -6 -18 -14 19 -5 22 -4 26 4 15 5
-8 10 -24 10 -34z m-43 2 c-3 -8 -6 -5 -6 6 -1 11 2 17 5 13 3 -3 4 -12 1 -19z
m-193 -121 c4 -31 3 -57 -1 -56 -5 1 -15 1 -23 0 -12 -1 -11 -4 4 -12 15 -9
16 -13 5 -20 -8 -5 -17 -9 -21 -9 -11 0 -10 54 2 66 5 5 10 25 11 44 5 71 15
66 23 -13z m-379 42 c11 -17 -1 -21 -15 -4 -8 9 -8 15 -2 15 6 0 14 -5 17 -11z
m2530 -108 c5 -30 4 -41 -3 -37 -6 4 -16 -3 -22 -14 -15 -29 -24 -25 -37 17
-9 30 -8 43 6 77 9 23 16 50 14 61 -5 40 35 -61 42 -104z m-875 34 c0 -8 -4
-15 -10 -15 -5 0 -7 7 -4 15 4 8 8 15 10 15 2 0 4 -7 4 -15z m239 -9 c4 -3 31
-6 59 -7 37 -2 52 -7 52 -17 0 -9 -6 -12 -17 -8 -30 12 -135 21 -280 25 -24 1
-43 6 -43 11 0 10 212 6 229 -4z m-1241 -14 c2 -6 -5 -11 -15 -11 -10 0 -37
-3 -60 -7 -28 -4 -43 -3 -43 4 0 5 9 8 19 5 10 -3 32 2 47 11 31 16 46 16 52
-2z m-604 -8 c5 -14 4 -15 -9 -4 -17 14 -19 20 -6 20 5 0 12 -7 15 -16z m770
7 c6 -9 -132 -26 -142 -17 -3 3 10 6 29 7 19 1 45 5 59 9 35 11 48 11 54 1z
m829 -8 c2 -5 -1 -21 -8 -37 -11 -27 -13 -28 -23 -10 -7 12 -7 25 -1 36 10 19
25 23 32 11z m-1193 -13 c0 -5 -10 -10 -22 -10 -19 0 -20 2 -8 10 19 13 30 13
30 0z m47 -1 c-14 -8 -22 -8 -30 0 -8 8 -3 11 19 11 25 -1 27 -2 11 -11z m938
-10 c5 -6 4 -9 -4 -9 -8 0 -10 -7 -6 -20 3 -11 2 -20 -2 -20 -5 0 -7 -15 -5
-33 2 -22 -2 -39 -12 -50 -9 -8 -16 -27 -16 -41 0 -25 -2 -26 -57 -26 -32 0
-109 -3 -172 -7 -94 -5 -113 -3 -109 8 3 8 1 22 -4 31 -7 14 -5 16 9 11 16 -6
16 -5 4 10 -7 9 -17 14 -22 11 -5 -3 -9 1 -9 10 0 8 -3 22 -7 32 -5 13 -3 16
10 11 11 -4 17 -1 17 9 0 8 -4 13 -9 10 -5 -3 -14 1 -21 9 -10 12 -9 16 4 21
13 5 14 10 5 20 -15 19 12 24 156 27 144 3 237 -2 250 -14z m295 14 c-1 -15
-30 -46 -36 -40 -12 12 -31 -26 -45 -88 l-13 -60 -7 50 c-7 41 -4 58 14 97 20
43 25 48 54 48 18 0 33 -3 33 -7z m58 -15 c-2 -17 -11 -24 -31 -26 -28 -3 -28
-3 -12 22 22 33 48 35 43 4z m50 -3 c0 -14 -4 -25 -9 -25 -5 0 -9 11 -9 25 0
14 4 25 9 25 5 0 9 -11 9 -25z m-981 -7 c30 -33 45 -67 39 -85 -3 -8 1 -21 9
-29 22 -22 23 -71 2 -112 -17 -35 -61 -53 -144 -59 -72 -6 -75 -5 -69 14 4 12
11 56 16 100 11 97 30 176 44 185 24 17 82 8 103 -14z m1035 -2 c4 -18 0 -26
-13 -29 -23 -6 -27 -2 -21 28 6 32 28 32 34 1z m-1326 -26 c-6 -31 -5 -31 29
-24 44 8 44 1 1 -73 -18 -32 -52 -90 -75 -130 -22 -40 -52 -97 -65 -128 -23
-50 -28 -55 -56 -55 -37 0 -36 5 12 111 l30 66 -21 70 c-12 39 -21 79 -22 89
-1 11 -5 6 -12 -14 -7 -23 -15 -31 -25 -27 -8 3 -21 0 -28 -6 -16 -13 -16 -13
-19 21 -5 42 18 57 90 58 70 1 67 4 80 -71 l6 -39 35 57 c42 71 43 81 3 35
-31 -36 -30 -26 3 22 10 14 18 36 18 47 0 12 5 21 11 21 7 0 9 -11 5 -30z
m-96 10 c0 -5 -2 -10 -4 -10 -3 0 -8 5 -11 10 -3 6 -1 10 4 10 6 0 11 -4 11
-10z m438 -25 c-3 -3 -9 2 -12 12 -6 14 -5 15 5 6 7 -7 10 -15 7 -18z m-718
-58 l0 -40 -27 24 c-15 13 -7 0 17 -29 36 -43 42 -56 33 -70 -7 -12 -20 -16
-44 -14 -42 5 -45 8 -30 26 9 10 9 16 1 21 -7 4 -9 17 -6 28 3 12 -1 28 -9 37
-13 15 -13 20 0 48 15 28 18 30 41 20 20 -9 24 -18 24 -51z m-260 49 c0 -3 -4
-8 -10 -11 -5 -3 -10 -1 -10 4 0 6 5 11 10 11 6 0 10 -2 10 -4z m76 -31 c21
-51 19 -68 -8 -59 -13 4 -42 6 -66 5 -41 -1 -42 -1 -30 21 42 75 81 87 104 33z
m102 10 c-3 -3 -9 2 -12 12 -6 14 -5 15 5 6 7 -7 10 -15 7 -18z m-215 -12 c-7
-3 -10 -10 -7 -16 2 -7 -2 -21 -10 -32 -13 -18 -14 -18 -9 10 8 48 12 57 25
49 9 -6 9 -9 1 -11z m147 -13 c0 -5 -2 -10 -4 -10 -3 0 -8 5 -11 10 -3 6 -1
10 4 10 6 0 11 -4 11 -10z m1402 -58 c-7 -2 -10 -7 -7 -12 3 -4 -2 -32 -11
-61 -9 -30 -18 -60 -20 -68 -3 -8 -7 -12 -10 -9 -5 5 11 85 23 118 3 8 7 22 8
30 1 8 3 24 4 35 2 18 3 18 14 -4 9 -19 9 -25 -1 -29z m-1378 12 c3 -8 2 -12
-4 -9 -6 3 -10 10 -10 16 0 14 7 11 14 -7z m-26 -94 c-12 -33 -25 -60 -30 -60
-4 0 -4 10 1 23 42 106 64 134 29 37z m92 45 c0 -12 -19 -12 -23 0 -4 9 -1 12
9 8 7 -3 14 -7 14 -8z m180 -32 l0 -48 -19 30 c-17 27 -17 32 -3 48 8 9 17 17
19 17 1 0 3 -21 3 -47z m340 12 c30 -37 -29 -105 -65 -75 -19 16 -19 40 1 68
18 25 46 29 64 7z m-573 -27 c-3 -8 -6 -5 -6 6 -1 11 2 17 5 13 3 -3 4 -12 1
-19z m-121 -11 c21 -18 26 -29 21 -49 -11 -41 -39 -67 -77 -70 -19 -2 -38 -7
-41 -12 -15 -21 -24 7 -21 66 l4 65 36 10 c20 6 40 11 44 12 4 0 19 -9 34 -22z
m986 -43 c1 -6 -13 -31 -30 -57 -18 -25 -32 -50 -32 -56 0 -5 16 -13 36 -17
34 -6 35 -8 32 -47 -3 -39 -4 -40 -53 -53 -35 -8 -58 -22 -78 -46 -26 -31 -28
-31 -23 -8 4 14 7 59 9 100 l2 75 -41 -3 -41 -3 -1 40 c-1 22 -3 46 -4 53 -2
8 19 15 63 19 73 8 106 21 128 53 15 19 15 19 24 -10 5 -16 9 -34 9 -40z m50
-86 c-7 -29 -29 -40 -62 -33 -16 4 -30 10 -30 13 0 4 17 32 37 62 l37 55 11
-40 c7 -22 10 -48 7 -57z m-939 44 c33 -30 7 -141 -31 -128 -9 3 -2 -7 17 -24
40 -34 47 -33 30 4 -16 33 -9 39 32 28 30 -7 34 -13 37 -44 4 -45 35 -77 57
-58 8 7 15 18 15 26 0 21 15 24 49 11 30 -11 42 -27 21 -27 -7 0 -7 -6 0 -20
9 -16 8 -18 -5 -14 -17 7 -47 -23 -72 -69 -11 -23 -19 -28 -36 -23 -12 3 -25
6 -29 6 -13 0 -9 30 8 55 19 29 10 46 -38 71 -27 14 -28 14 -28 -11 0 -48 -48
-75 -159 -88 -53 -7 -42 9 14 21 30 6 41 13 43 29 3 18 -1 21 -20 16 -40 -8
-72 -26 -100 -55 -30 -31 -46 -35 -54 -13 -13 33 98 98 159 93 33 -2 42 1 45
14 4 23 -35 61 -58 55 -15 -4 -16 -1 -6 24 6 16 16 27 22 25 17 -6 38 44 24
58 -7 7 -10 4 -10 -11 0 -12 -4 -25 -10 -28 -13 -8 -13 -8 6 54 13 46 17 51
37 45 12 -3 30 -13 40 -22z m37 -2 c0 -5 -2 -10 -4 -10 -3 0 -8 5 -11 10 -3 6
-1 10 4 10 6 0 11 -4 11 -10z m530 -119 c24 -39 70 -142 70 -158 0 -2 4 -3 9
-3 4 0 11 41 15 92 4 50 9 95 12 100 3 4 21 8 40 8 33 0 35 -2 30 -27 -6 -27
-27 -262 -28 -315 -3 -88 -118 20 -118 111 0 14 -10 42 -23 61 l-22 35 -5
-110 -5 -110 -32 -3 -33 -3 0 149 c0 199 3 212 51 221 4 0 21 -21 39 -48z
m-666 -50 c6 -9 -26 -21 -54 -21 -11 1 -10 4 4 15 22 17 42 19 50 6z m1476
-11 c13 -13 20 -33 20 -59 0 -59 -8 -71 -46 -71 -41 0 -53 20 -33 57 10 20 11
27 2 30 -16 6 4 63 23 63 8 0 23 -9 34 -20z m200 0 c17 -17 19 -50 3 -50 -3 0
-2 8 1 17 6 16 5 16 -11 1 -11 -10 -28 -14 -44 -11 -39 7 -45 -14 -9 -32 44
-23 56 -54 35 -94 -33 -64 -123 -88 -167 -44 -18 19 -18 20 8 44 22 21 27 22
37 9 14 -19 47 -14 47 6 0 8 -11 19 -24 24 -38 14 -49 43 -32 83 8 19 24 42
37 51 33 23 94 21 119 -4z m-1635 -10 c3 -5 1 -10 -4 -10 -6 0 -11 5 -11 10 0
6 2 10 4 10 3 0 8 -4 11 -10z m-205 -25 c0 -14 5 -25 10 -25 6 0 10 3 10 8 0
4 10 13 23 21 18 11 16 7 -8 -20 -16 -19 -33 -38 -36 -42 -4 -5 -8 12 -10 37
-3 25 -1 46 3 46 5 0 8 -11 8 -25z m1193 -11 c15 -14 30 -43 33 -63 4 -20 10
-38 14 -41 12 -8 23 -120 12 -120 -11 0 -22 34 -22 73 l0 27 -76 0 c-72 0 -75
-1 -72 -22 4 -28 33 -35 56 -15 18 16 72 12 72 -5 0 -36 -56 -72 -101 -65 -94
15 -133 109 -81 198 35 62 120 78 165 33z m1097 -24 c0 -27 -8 -48 -26 -69
-14 -17 -29 -31 -33 -31 -5 0 1 28 12 63 11 34 22 68 24 75 6 27 23 0 23 -38z
m540 40 c0 -5 -4 -10 -10 -10 -5 0 -10 5 -10 10 0 6 5 10 10 10 6 0 10 -4 10
-10z m-817 -30 c-20 -34 -22 -35 -49 -15 -19 14 -19 14 1 9 13 -3 28 2 39 15
27 29 30 26 9 -9z m-1405 -2 c13 -13 16 -48 4 -48 -14 0 -32 23 -32 42 0 21
11 23 28 6z m2208 -38 c-10 -72 -22 -101 -41 -94 -8 3 -15 2 -15 -4 0 -6 -9
-8 -20 -5 -11 3 -20 9 -20 13 0 15 43 45 64 43 15 -1 16 0 4 3 -22 7 -22 15
-4 59 23 54 40 45 32 -15z m-61 -20 c-24 -26 -32 -18 -9 9 10 11 20 18 23 16
2 -3 -4 -14 -14 -25z m-1456 -87 c-1 -107 -12 -92 -23 30 -4 55 -3 67 9 67 12
0 15 -18 14 -97z m397 76 c19 -21 19 -22 -4 -14 -19 5 -32 -2 -72 -39 -54 -51
-82 -60 -72 -23 11 45 30 64 61 59 22 -3 33 1 43 17 16 26 20 26 44 0z m498
-61 c-30 -58 -39 -60 -19 -3 8 22 14 48 15 59 0 15 3 16 15 6 12 -10 11 -19
-11 -62z m-1545 -16 c6 -20 9 -38 6 -40 -4 -4 -55 105 -55 117 1 16 41 -45 49
-77z m-45 32 c11 -27 7 -37 -9 -24 -16 14 -20 40 -6 40 5 0 12 -7 15 -16z
m1974 -9 c15 -15 -12 -15 -40 -1 l-33 17 34 -5 c19 -4 37 -8 39 -11z m132 5
c0 -5 -4 -10 -10 -10 -5 0 -10 5 -10 10 0 6 5 10 10 10 6 0 10 -4 10 -10z
m-2212 -8 c7 -5 10 -16 7 -24 -5 -12 2 -18 24 -23 36 -8 81 -48 81 -72 0 -39
-29 -63 -74 -63 -56 0 -83 19 -67 48 9 18 16 20 36 12 15 -6 27 -6 30 0 9 15
-4 30 -26 30 -25 0 -79 27 -79 40 0 6 12 11 28 11 23 2 24 2 5 6 -22 4 -30 23
-16 36 9 9 35 8 51 -1z m1898 -7 c-11 -8 -27 -15 -35 -15 -10 1 -7 6 9 15 33
19 50 18 26 0z m-2361 -5 c-3 -5 -1 -10 5 -10 6 0 8 -5 4 -11 -4 -8 -9 -7 -15
2 -12 19 -11 29 2 29 5 0 7 -4 4 -10z m370 -33 c16 -35 45 -125 45 -143 0 -7
-8 -14 -17 -17 -10 -2 -25 -8 -33 -11 -12 -5 -20 9 -35 64 -21 75 -35 96 -60
86 -20 -7 -20 -61 0 -116 8 -23 15 -46 15 -51 0 -8 -60 -43 -64 -37 -5 8 -46
166 -49 186 -2 23 11 34 73 61 25 11 89 19 102 13 4 -1 14 -17 23 -35z m1925
35 c0 -5 -12 -14 -26 -20 -14 -7 -22 -17 -18 -23 5 -8 -90 -109 -103 -109 -9
0 -1 29 11 40 8 6 12 18 9 26 -3 7 2 17 11 20 9 3 16 13 16 20 0 8 19 23 43
34 48 21 57 23 57 12z m-2310 -22 c13 -24 2 -50 -11 -29 -9 15 -12 49 -4 49 2
0 9 -9 15 -20z m1596 -18 c-14 -14 -16 -14 -16 -1 0 20 23 44 29 28 2 -6 -4
-18 -13 -27z m-91 -43 c-8 -65 -23 -126 -24 -97 -1 23 22 158 27 158 2 0 1
-27 -3 -61z m465 39 c10 -12 15 -28 13 -35 -8 -20 -23 -15 -23 7 0 27 -16 25
-25 -2 l-8 -23 -4 23 c-4 20 11 52 24 52 3 0 13 -10 23 -22z m202 -21 c-18
-18 -32 -42 -32 -54 0 -18 -26 -40 -36 -30 -9 8 38 87 62 106 39 31 43 16 6
-22z m-532 24 c0 -6 -4 -13 -10 -16 -5 -3 -10 1 -10 9 0 9 5 16 10 16 6 0 10
-4 10 -9z m87 -28 c-15 -16 -17 -16 -17 -1 0 9 6 18 13 21 20 7 22 -2 4 -20z
m-47 13 c0 -3 -4 -8 -10 -11 -5 -3 -10 -1 -10 4 0 6 5 11 10 11 6 0 10 -2 10
-4z m180 -12 c0 -2 -9 -4 -21 -4 -11 0 -18 4 -14 10 5 8 35 3 35 -6z m-1660
-196 c0 -16 -4 -28 -10 -28 -5 0 -26 -18 -47 -39 l-38 -40 -31 28 c-44 40 -85
149 -42 113 11 -8 13 -3 10 29 -4 40 18 89 39 89 6 0 25 12 42 26 l30 25 23
-88 c13 -48 23 -100 24 -115z m1690 192 c0 -5 -4 -10 -10 -10 -5 0 -10 5 -10
10 0 6 5 10 10 10 6 0 10 -4 10 -10z m171 -17 c-8 -15 -10 -15 -11 -2 0 17 10
32 18 25 2 -3 -1 -13 -7 -23z m-36 7 c3 -5 1 -10 -4 -10 -6 0 -11 5 -11 10 0
6 2 10 4 10 3 0 8 -4 11 -10z m3 -44 c5 -3 17 -3 25 0 23 8 25 -22 7 -94 -14
-60 -31 -81 -36 -47 -1 8 2 13 7 9 5 -3 9 0 9 5 0 6 -4 11 -10 11 -5 0 -10 8
-10 18 0 15 2 15 11 2 7 -10 9 -11 7 -2 -2 8 -7 13 -10 13 -4 0 -21 13 -39 30
-26 24 -40 29 -80 29 -51 0 -52 0 -44 22 4 10 25 13 79 12 40 0 78 -4 84 -8z
m457 -16 c3 -5 2 -10 -4 -10 -5 0 -13 5 -16 10 -3 6 -2 10 4 10 5 0 13 -4 16
-10z m-1582 -27 c-7 -3 -20 -29 -29 -58 -11 -39 -19 -52 -30 -48 -8 3 -14 9
-14 15 0 5 -4 7 -8 4 -4 -2 -9 5 -9 16 -1 11 1 17 5 14 3 -4 12 8 18 26 8 23
17 33 32 33 11 0 24 3 28 8 4 4 10 4 13 1 3 -4 0 -9 -6 -11z m374 -95 c-2 -24
-4 -7 -4 37 0 44 2 63 4 43 2 -21 2 -57 0 -80z m1083 108 c0 -2 -7 -9 -15 -16
-13 -11 -14 -10 -9 4 5 14 24 23 24 12z m-1411 -43 c-1 -33 -2 -35 -8 -13 -4
14 -6 31 -3 38 8 22 12 13 11 -25z m65 2 c-3 -76 -8 -96 -24 -89 -8 4 -24 8
-36 8 -14 1 -19 6 -16 18 2 9 10 14 17 12 13 -5 25 24 25 64 0 17 5 22 18 20
12 -2 17 -12 16 -33z m975 -1 c26 -33 27 -69 2 -117 -10 -20 -15 -40 -10 -43
5 -3 9 -21 9 -41 0 -59 12 -29 14 34 1 52 3 58 24 61 19 3 22 -1 22 -27 0 -26
4 -31 24 -31 13 0 27 -7 30 -16 4 -12 14 -15 34 -11 37 7 96 -21 82 -38 -9
-10 -17 -8 -38 13 l-27 27 -3 -22 c-2 -13 -6 -23 -10 -23 -13 0 -29 15 -34 29
-2 9 -18 15 -39 15 -27 1 -37 -4 -49 -28 -9 -15 -20 -28 -25 -28 -6 -1 -20
-16 -33 -34 -28 -42 -64 -61 -130 -70 -40 -5 -52 -3 -52 6 0 11 49 269 66 348
4 20 10 22 63 22 52 0 62 -3 80 -26z m-793 -48 c1 -43 -2 -53 -13 -49 -8 3
-13 14 -10 24 3 12 0 16 -9 12 -8 -3 -14 1 -14 8 0 14 -29 -20 -30 -35 0 -6 7
-1 15 10 13 17 16 17 14 -2 0 -3 7 -11 17 -18 15 -11 13 -12 -14 -8 -17 2 -45
-3 -61 -11 -33 -17 -34 -16 -25 7 3 8 12 12 21 9 10 -4 14 -2 10 4 -4 6 -1 14
5 17 7 3 2 3 -12 -1 -22 -5 -23 -4 -11 11 8 9 19 15 25 13 6 -2 21 10 34 27
15 21 22 25 22 13 0 -23 17 -21 25 3 3 11 7 20 8 20 2 0 3 -24 3 -54z m281
-13 c-3 -10 -5 -2 -5 17 0 19 2 27 5 18 2 -10 2 -26 0 -35z m-1458 -38 c0 -5
-4 -3 -9 5 -5 8 -9 22 -9 30 0 16 17 -16 18 -35z m615 10 c20 -31 31 -81 19
-88 -4 -3 -24 -8 -43 -12 -43 -8 -83 15 -62 36 6 7 12 25 12 39 0 52 46 67 74
25z m277 2 c-10 -9 -11 -8 -5 6 3 10 9 15 12 12 3 -3 0 -11 -7 -18z m-62 -11
c17 -20 -7 -58 -31 -50 -24 7 -23 -13 2 -28 11 -7 20 -22 20 -33 0 -38 12 -64
26 -58 8 3 14 1 14 -5 0 -16 33 -24 41 -10 5 7 -6 27 -27 50 -19 21 -34 42
-34 48 0 24 26 63 51 76 38 19 62 18 90 -5 20 -16 22 -21 10 -35 -10 -12 -23
-15 -42 -11 -41 9 -42 -8 -4 -43 40 -35 44 -62 15 -109 -24 -40 -61 -51 -95
-29 -34 22 -65 57 -65 74 0 7 -11 28 -25 46 -29 38 -31 61 -9 104 17 34 44 41
63 18z m675 -2 c3 -9 6 -39 7 -67 l0 -52 17 25 c65 94 77 105 113 102 18 -2
36 -6 38 -8 2 -2 -35 -55 -83 -119 -83 -111 -97 -133 -76 -120 6 4 -2 -18 -17
-49 -15 -30 -29 -54 -31 -52 -2 2 6 23 18 46 31 61 16 62 -17 1 -15 -28 -32
-51 -37 -51 -13 0 -1 83 18 120 12 25 14 48 10 100 -4 37 -4 84 0 104 7 37 29
48 40 20z m-330 -39 c35 -15 36 -17 31 -57 -3 -23 -11 -48 -17 -55 -5 -7 -8
-23 -4 -35 3 -13 3 -39 0 -59 l-6 -37 -66 0 c-58 0 -68 2 -94 28 -23 23 -28
37 -28 77 0 51 25 104 63 135 27 22 73 23 121 3z m1146 6 c0 -3 -7 -14 -14
-23 -15 -20 -46 -24 -62 -8 -7 7 -21 7 -43 -1 -43 -15 -90 3 -70 27 10 12 31
15 101 13 48 -2 88 -5 88 -8z m-1812 -8 c-21 -5 -23 -14 -6 -31 8 -8 8 -12 1
-12 -6 0 -15 6 -22 13 -13 16 4 38 29 36 11 -1 11 -2 -2 -6z m202 -52 c27 -52
-6 -81 -92 -81 -23 0 -37 -4 -33 -10 5 -9 -50 -50 -67 -50 -5 0 -8 9 -8 20 0
11 5 20 11 20 5 0 8 4 5 9 -3 4 0 20 7 35 10 22 18 26 47 25 53 -4 82 9 75 32
-5 15 -1 19 19 19 15 0 30 -8 36 -19z m49 -20 c26 -36 26 -36 -5 -39 -17 -1
-24 2 -21 11 2 6 0 22 -4 35 -12 31 6 28 30 -7z m485 4 c3 -8 1 -15 -4 -15 -6
0 -10 7 -10 15 0 8 2 15 4 15 2 0 6 -7 10 -15z m832 -18 c3 -9 10 -15 15 -11
6 3 16 1 23 -5 10 -9 15 -8 20 4 3 8 11 15 18 15 9 0 8 -3 -2 -10 -13 -8 -12
-10 3 -10 9 0 17 -5 17 -11 0 -7 -14 -10 -35 -7 -19 2 -35 0 -35 -4 0 -4 5 -8
10 -8 6 0 10 -5 10 -11 0 -8 -5 -7 -16 1 -13 11 -16 10 -21 -9 -6 -23 -24 -24
-31 -1 -3 7 0 10 6 7 5 -4 15 0 22 8 9 11 8 19 -4 37 l-16 22 0 -22 c0 -13 -4
-20 -10 -17 -5 3 -19 -10 -31 -29 -25 -42 -34 -47 -16 -9 9 21 9 27 -1 31 -9
3 -8 10 4 30 18 32 61 37 70 9z m441 1 c-3 -8 -6 -5 -6 6 -1 11 2 17 5 13 3
-3 4 -12 1 -19z m-1277 -48 c0 -11 -2 -20 -4 -20 -2 0 -6 9 -9 20 -3 11 -1 20
4 20 5 0 9 -9 9 -20z m440 4 c20 -23 1 -66 -34 -79 -23 -8 -30 -6 -41 9 -33
45 40 113 75 70z m510 -2 c0 -4 21 -18 46 -30 26 -13 44 -25 41 -28 -3 -3 -19
2 -36 10 -29 15 -30 15 -24 -1 6 -16 5 -16 -10 -4 -9 7 -17 20 -17 28 0 10 -6
12 -20 8 -21 -7 -28 10 -7 18 19 8 27 8 27 -1z m-1825 -12 c-3 -5 -12 -10 -18
-10 -7 0 -6 4 3 10 19 12 23 12 15 0z m1771 -48 c-11 -10 -15 4 -8 28 l7 25 3
-23 c2 -13 1 -26 -2 -30z m-35 1 c-8 -15 -10 -15 -11 -2 0 17 10 32 18 25 2
-3 -1 -13 -7 -23z m84 -13 c-3 -5 -14 -10 -23 -10 -13 0 -14 2 -4 8 8 5 10 16
5 28 -7 18 -6 18 11 2 9 -10 14 -22 11 -28z m-189 -2 c4 -7 3 -8 -4 -4 -7 4
-12 2 -12 -5 0 -7 -3 -10 -6 -6 -6 5 3 27 11 27 2 0 7 -5 11 -12z m34 2 c0 -5
-2 -10 -4 -10 -3 0 -8 5 -11 10 -3 6 -1 10 4 10 6 0 11 -4 11 -10z m-788 -44
c1 -20 -2 -39 -6 -44 -5 -4 -7 2 -5 13 2 11 0 26 -5 33 -8 13 0 49 9 40 3 -3
6 -22 7 -42z m591 -24 c-26 -34 -53 -58 -60 -55 -7 3 -10 10 -7 15 4 6 9 6 14
-2 6 -9 9 -7 14 6 3 11 17 31 31 46 l25 27 -28 4 c-25 4 -25 4 5 6 17 0 35 6
38 12 4 6 9 8 12 6 2 -3 -17 -32 -44 -65z m412 58 c-3 -5 -15 -10 -26 -10 -10
0 -19 -5 -19 -12 0 -6 -3 -8 -7 -4 -9 9 25 36 45 36 7 0 10 -4 7 -10z m-455
-14 c0 -3 -4 -8 -10 -11 -5 -3 -10 -1 -10 4 0 6 5 11 10 11 6 0 10 -2 10 -4z
m-600 -121 c-7 -38 -16 -77 -21 -85 -12 -21 -10 -4 6 65 8 33 15 78 16 100 1
28 3 33 6 15 3 -14 0 -56 -7 -95z m857 109 c-3 -3 -12 -4 -19 -1 -8 3 -5 6 6
6 11 1 17 -2 13 -5z m48 -4 c-3 -5 -12 -7 -20 -3 -21 7 -19 13 6 13 11 0 18
-4 14 -10z m75 0 c0 -5 -4 -10 -9 -10 -6 0 -13 5 -16 10 -3 6 1 10 9 10 9 0
16 -4 16 -10z m-160 -4 c0 -11 -19 -15 -25 -6 -3 5 1 10 9 10 9 0 16 -2 16 -4z
m-50 -34 c0 -4 -16 -23 -36 -42 l-37 -34 17 32 c9 17 22 31 29 29 6 -1 11 4
10 11 -2 6 2 12 7 12 6 0 10 -4 10 -8z m-487 -52 c-3 -12 -8 -19 -11 -16 -5 6
5 36 12 36 2 0 2 -9 -1 -20z m4 -102 c-3 -8 -6 -5 -6 6 -1 11 2 17 5 13 3 -3
4 -12 1 -19z"/>
<path d="M2369 4570 c22 -28 41 -58 41 -66 0 -9 5 -12 11 -8 7 4 10 1 7 -7 -3
-8 2 -19 10 -25 8 -6 16 -22 18 -35 1 -13 3 -28 3 -32 1 -5 6 -5 13 -1 8 5 9
2 4 -12 -4 -10 -4 -15 0 -11 9 9 55 -104 49 -121 -3 -7 0 -10 5 -7 6 3 10 -1
10 -9 0 -9 4 -16 9 -16 13 0 -18 88 -67 191 -42 88 -109 186 -138 202 -9 5 2
-14 25 -43z"/>
<path d="M2548 4192 c-3 -12 -2 -20 3 -16 5 3 9 -3 9 -13 0 -10 7 -28 15 -41
14 -20 14 -21 0 -16 -8 4 -15 1 -15 -6 0 -8 9 -10 28 -5 15 4 43 9 62 11 54 7
48 14 -13 14 -47 0 -57 3 -57 18 -1 9 -7 30 -14 47 -12 29 -13 29 -18 7z"/>
<path d="M1945 4290 c3 -5 14 -10 23 -10 15 0 15 2 2 10 -20 13 -33 13 -25 0z"/>
<path d="M2070 4220 c-9 -6 -10 -10 -3 -10 6 0 15 5 18 10 8 12 4 12 -15 0z"/>
<path d="M2120 4181 c0 -6 4 -13 10 -16 6 -3 7 1 4 9 -7 18 -14 21 -14 7z"/>
<path d="M2249 4033 c-13 -16 -12 -17 4 -4 16 13 21 21 13 21 -2 0 -10 -8 -17
-17z"/>
<path d="M1800 3840 c0 -5 5 -10 10 -10 6 0 10 5 10 10 0 6 -4 10 -10 10 -5 0
-10 -4 -10 -10z"/>
<path d="M1895 3810 c3 -5 8 -10 11 -10 2 0 4 5 4 10 0 6 -5 10 -11 10 -5 0
-7 -4 -4 -10z"/>
<path d="M1960 3751 c-6 -12 -7 -21 -1 -21 10 0 24 30 17 37 -2 3 -9 -5 -16
-16z"/>
<path d="M2460 3716 c0 -3 11 -15 25 -28 l24 -23 -37 -40 c-21 -22 -52 -59
-69 -83 -20 -28 -33 -38 -36 -30 -3 7 -5 2 -4 -12 1 -14 -3 -24 -9 -23 -6 1
-11 -3 -11 -10 0 -7 -4 -25 -7 -42 -6 -24 -1 -19 21 20 46 80 87 137 132 180
37 36 55 65 32 50 -5 -3 -16 3 -23 13 -14 19 -38 37 -38 28z"/>
<path d="M2401 3644 c0 -11 3 -14 6 -6 3 7 2 16 -1 19 -3 4 -6 -2 -5 -13z"/>
<path d="M2396 3587 c5 -14 2 -16 -12 -11 -16 5 -16 4 -4 -5 20 -14 39 4 21
22 -10 10 -11 9 -5 -6z"/>
<path d="M3112 3676 c-29 -8 -56 -17 -60 -21 -6 -7 35 -1 83 12 l20 5 -20 -17
c-12 -10 -5 -8 17 5 21 12 46 19 55 16 10 -2 36 -1 58 4 36 7 33 8 -30 8 -38
0 -94 -5 -123 -12z"/>
<path d="M3065 3630 c3 -5 8 -10 11 -10 2 0 4 5 4 10 0 6 -5 10 -11 10 -5 0
-7 -4 -4 -10z"/>
<path d="M2725 3621 c-3 -5 -1 -12 5 -16 5 -3 10 1 10 9 0 18 -6 21 -15 7z"/>
<path d="M2699 3583 c-13 -16 -12 -17 4 -4 16 13 21 21 13 21 -2 0 -10 -8 -17
-17z"/>
<path d="M2530 3560 c-6 -11 -8 -20 -6 -20 3 0 10 9 16 20 6 11 8 20 6 20 -3
0 -10 -9 -16 -20z"/>
<path d="M2016 3355 c-9 -26 -7 -32 5 -12 6 10 9 21 6 23 -2 3 -7 -2 -11 -11z"/>
<path d="M2166 3167 c3 -10 9 -15 12 -12 3 3 0 11 -7 18 -10 9 -11 8 -5 -6z"/>
<path d="M2308 3133 c12 -2 30 -2 40 0 9 3 -1 5 -23 4 -22 0 -30 -2 -17 -4z"/>
<path d="M2487 3032 l-18 -37 20 25 c12 14 21 31 21 38 0 19 -4 15 -23 -26z"/>
<path d="M2280 2925 c13 -14 26 -25 28 -25 3 0 -5 11 -18 25 -13 14 -26 25
-28 25 -3 0 5 -11 18 -25z"/>
<path d="M2320 2897 c0 -2 15 -14 33 -27 20 -15 27 -17 18 -6 -13 16 -51 41
-51 33z"/>
<path d="M2410 2825 c13 -14 26 -25 28 -25 3 0 -5 11 -18 25 -13 14 -26 25
-28 25 -3 0 5 -11 18 -25z"/>
<path d="M2460 2786 c0 -2 8 -10 18 -17 15 -13 16 -12 3 4 -13 16 -21 21 -21
13z"/>
<path d="M1818 3393 c-57 -6 -45 -19 15 -16 28 1 54 3 57 4 3 1 8 1 13 0 4 0
7 4 7 9 0 10 -19 10 -92 3z"/>
<path d="M3038 2840 c2 -16 8 -27 13 -24 13 8 11 30 -4 43 -11 8 -13 5 -9 -19z"/>
<path d="M3050 2735 c9 -10 12 -45 11 -104 -2 -87 12 -177 32 -196 6 -7 7 -1
3 18 -4 18 -2 27 5 27 8 0 7 6 -3 18 -9 9 -18 32 -20 50 -4 26 -1 32 14 32 23
0 23 11 -2 38 -26 28 -25 36 5 50 25 11 35 42 14 42 -5 0 -7 5 -3 12 5 8 2 9
-10 5 -10 -4 -19 -1 -22 8 -4 8 -13 15 -21 15 -13 0 -13 -3 -3 -15z"/>
<path d="M3097 2176 c-9 -21 -13 -35 -8 -32 5 4 11 3 14 -1 2 -5 2 -2 0 6 -2
8 1 18 8 21 6 4 9 15 7 25 -2 13 -8 8 -21 -19z"/>
<path d="M3376 2194 c-4 -9 -4 -19 -1 -22 2 -3 7 3 11 12 4 9 4 19 1 22 -2 3
-7 -3 -11 -12z"/>
<path d="M3140 2185 c0 -8 2 -15 4 -15 2 0 6 7 10 15 3 8 1 15 -4 15 -6 0 -10
-7 -10 -15z"/>
<path d="M3171 2124 c0 -11 3 -14 6 -6 3 7 2 16 -1 19 -3 4 -6 -2 -5 -13z"/>
<path d="M3201 2124 c0 -11 3 -14 6 -6 3 7 2 16 -1 19 -3 4 -6 -2 -5 -13z"/>
<path d="M3116 2103 c-6 -14 -5 -15 5 -6 7 7 10 15 7 18 -3 3 -9 -2 -12 -12z"/>
<path d="M3180 2079 c0 -5 5 -7 10 -4 6 3 10 8 10 11 0 2 -4 4 -10 4 -5 0 -10
-5 -10 -11z"/>
<path d="M3092 2054 c-10 -11 -7 -13 18 -10 17 2 32 1 34 -3 3 -3 53 -8 113
-9 59 -2 106 -1 103 2 -6 5 -103 14 -195 17 -27 1 -52 6 -55 10 -3 4 -11 1
-18 -7z"/>
<path d="M3406 1863 c6 -4 14 -15 17 -23 5 -11 6 -9 4 4 -1 11 -9 21 -17 23
-10 3 -11 2 -4 -4z"/>
<path d="M2902 1838 c-5 -7 -13 -24 -17 -38 -7 -24 -6 -24 7 -5 25 35 34 72
10 43z"/>
<path d="M3231 1759 c-7 -47 -16 -90 -19 -96 -4 -6 -22 -8 -41 -5 -33 5 -33 5
-27 46 20 122 20 126 -1 126 -29 0 -39 -17 -47 -75 -12 -89 -8 -85 -96 -85
l-78 0 -6 35 c-4 19 -11 35 -16 35 -9 0 -3 -34 11 -65 8 -17 20 -20 85 -20 89
0 96 6 113 95 10 52 25 80 36 69 2 -2 -3 -37 -10 -77 -14 -83 -6 -102 44 -102
33 0 48 14 55 53 2 15 8 37 12 50 7 20 9 18 19 -18 12 -39 11 -42 -32 -103
-25 -35 -42 -66 -39 -69 2 -3 26 27 51 66 l47 70 -24 78 -24 78 -13 -86z"/>
<path d="M3354 1695 c-4 -29 -22 -69 -48 -108 -39 -58 -44 -62 -76 -59 -27 2
-31 0 -20 -7 36 -25 60 -12 101 52 l41 62 -5 -90 c-7 -118 9 -43 21 98 8 99
-1 134 -14 52z"/>
<path d="M3455 1708 c-35 -98 -43 -127 -23 -94 14 24 39 106 32 106 -2 0 -7
-6 -9 -12z"/>
<path d="M3246 1304 c-19 -19 -30 -58 -22 -79 10 -26 44 -17 62 16 28 55 -1
102 -40 63z m34 -22 c0 -38 -24 -71 -40 -56 -14 14 -6 47 16 69 21 21 24 19
24 -13z"/>
<path d="M2040 2789 c0 -5 5 -7 10 -4 6 3 10 8 10 11 0 2 -4 4 -10 4 -5 0 -10
-5 -10 -11z"/>
<path d="M2141 2693 c-1 -12 4 -25 9 -28 12 -7 12 2 0 30 -8 19 -9 19 -9 -2z"/>
<path d="M1935 2688 c11 -6 23 -16 27 -22 5 -7 8 -8 8 0 0 15 -22 34 -39 34
-12 -1 -11 -4 4 -12z"/>
<path d="M2122 2655 c0 -16 2 -22 5 -12 2 9 2 23 0 30 -3 6 -5 -1 -5 -18z"/>
<path d="M2000 2537 c0 -2 9 -14 20 -27 12 -14 33 -23 55 -25 l36 -2 -52 29
c-52 28 -59 31 -59 25z"/>
<path d="M2190 2510 c0 -5 5 -10 10 -10 6 0 10 5 10 10 0 6 -4 10 -10 10 -5 0
-10 -4 -10 -10z"/>
<path d="M2206 2295 c-9 -26 -7 -32 5 -12 6 10 9 21 6 23 -2 3 -7 -2 -11 -11z"/>
<path d="M2080 2215 c0 -15 4 -24 10 -20 6 3 10 12 10 20 0 8 -4 17 -10 20 -6
4 -10 -5 -10 -20z"/>
<path d="M2121 2163 c0 -26 -7 -45 -16 -51 -13 -7 -11 -13 12 -39 82 -92 142
-151 147 -146 11 11 6 23 -8 23 -20 0 -42 58 -27 73 23 23 13 36 -19 24 -26
-10 -32 -8 -55 13 -31 29 -31 34 -2 63 l22 22 -22 3 c-15 2 -23 12 -26 30 -3
19 -4 14 -6 -15z"/>
<path d="M2076 2172 c-3 -6 -1 -14 5 -17 15 -10 25 3 12 16 -7 7 -13 7 -17 1z"/>
<path d="M2277 2103 c-4 -3 -7 -11 -7 -17 0 -6 5 -5 12 2 6 6 9 14 7 17 -3 3
-9 2 -12 -2z"/>
<path d="M2980 2306 c0 -8 4 -17 9 -20 5 -4 7 3 4 14 -6 23 -13 26 -13 6z"/>
<path d="M1428 2243 c-13 -3 -18 -15 -18 -39 0 -20 -5 -45 -12 -57 -10 -20
-10 -21 5 -8 15 12 17 11 17 -8 0 -11 5 -21 10 -21 6 0 8 20 4 55 -5 38 -3 59
6 70 7 8 11 14 9 14 -2 -1 -12 -3 -21 -6z"/>
<path d="M3451 2184 c0 -11 3 -14 6 -6 3 7 2 16 -1 19 -3 4 -6 -2 -5 -13z"/>
<path d="M3448 2153 c6 -2 18 -2 25 0 6 3 1 5 -13 5 -14 0 -19 -2 -12 -5z"/>
<path d="M3486 2135 c-3 -8 -1 -17 4 -20 6 -4 10 -1 10 4 0 18 18 12 23 -6 3
-10 4 -7 4 8 -1 27 -31 38 -41 14z"/>
<path d="M3424 2089 c-4 -8 1 -9 16 -4 14 4 25 3 30 -5 4 -7 13 -9 20 -5 9 6
9 9 -1 16 -20 12 -57 11 -65 -2z"/>
<path d="M3476 2051 c-4 -5 3 -7 14 -4 23 6 26 13 6 13 -8 0 -17 -4 -20 -9z"/>
<path d="M2915 2040 c-3 -5 1 -10 9 -10 9 0 16 5 16 10 0 6 -4 10 -9 10 -6 0
-13 -4 -16 -10z"/>
<path d="M2843 1903 c-21 -8 -15 -22 7 -16 11 3 20 9 20 14 0 10 -8 10 -27 2z"/>
<path d="M2601 1824 c0 -11 3 -14 6 -6 3 7 2 16 -1 19 -3 4 -6 -2 -5 -13z"/>
<path d="M2177 1903 c-2 -5 -7 -20 -11 -35 -5 -21 -3 -28 8 -28 16 0 46 26 46
40 0 13 -38 32 -43 23z"/>
<path d="M2150 1756 c0 -13 -3 -31 -6 -40 -9 -24 39 -21 60 3 26 29 13 61 -25
61 -24 0 -29 -4 -29 -24z"/>
<path d="M2263 1313 c-25 -10 -12 -28 22 -30 36 -3 43 5 23 25 -13 13 -24 14
-45 5z"/>
<path d="M1265 997 c-8 -44 10 -93 29 -78 19 16 28 69 16 92 -16 29 -38 23
-45 -14z"/>
<path d="M3175 1050 c4 -6 11 -8 16 -5 14 9 11 15 -7 15 -8 0 -12 -5 -9 -10z"/>
<path d="M2040 1008 c0 -9 -4 -18 -9 -20 -13 -4 -18 -26 -6 -27 6 -1 10 2 11
7 0 4 4 15 9 25 4 10 5 21 1 24 -3 4 -6 -1 -6 -9z"/>
<path d="M2165 949 c-4 -6 -5 -12 -2 -15 2 -3 7 2 10 11 7 17 1 20 -8 4z"/>
<path d="M3085 930 c-8 -47 -2 -58 20 -40 19 16 20 54 1 69 -12 10 -15 5 -21
-29z"/>
<path d="M3052 768 c-6 -23 -10 -43 -9 -45 11 -11 48 15 56 39 12 35 7 48 -18
48 -13 0 -22 -12 -29 -42z m35 12 c-2 -11 -9 -26 -17 -33 -10 -10 -12 -9 -6 6
3 10 6 25 6 33 0 8 4 14 10 14 5 0 8 -9 7 -20z"/>
<path d="M2281 784 c-25 -32 -27 -57 -5 -78 37 -38 88 3 82 66 -4 45 -46 52
-77 12z"/>
<path d="M3460 856 c0 -2 7 -6 15 -10 8 -3 15 -1 15 4 0 6 -7 10 -15 10 -8 0
-15 -2 -15 -4z"/>
<path d="M3220 760 c0 -5 5 -10 10 -10 6 0 10 5 10 10 0 6 -4 10 -10 10 -5 0
-10 -4 -10 -10z"/>
<path d="M1955 3190 c10 -11 20 -20 23 -20 3 0 -3 9 -13 20 -10 11 -20 20 -23
20 -3 0 3 -9 13 -20z"/>
<path d="M3600 2320 c0 -5 5 -10 11 -10 5 0 7 5 4 10 -3 6 -8 10 -11 10 -2 0
-4 -4 -4 -10z"/>
<path d="M3792 2212 c17 -29 36 -56 41 -59 13 -8 -22 51 -50 85 -15 18 -12 9
9 -26z"/>
<path d="M3746 2205 c13 -58 24 -79 35 -68 13 13 5 40 -21 73 l-21 25 7 -30z"/>
<path d="M3649 2133 c-13 -16 -12 -17 4 -4 9 7 17 15 17 17 0 8 -8 3 -21 -13z"/>
<path d="M1256 2085 c-3 -9 -6 -24 -5 -33 0 -9 5 -4 10 12 9 32 6 48 -5 21z"/>
<path d="M1222 1905 c0 -16 2 -22 5 -12 2 9 2 23 0 30 -3 6 -5 -1 -5 -18z"/>
<path d="M1212 1850 c0 -14 2 -19 5 -12 2 6 2 18 0 25 -3 6 -5 1 -5 -13z"/>
<path d="M1202 1790 c0 -19 2 -27 5 -17 2 9 2 25 0 35 -3 9 -5 1 -5 -18z"/>
<path d="M3645 1810 c3 -5 8 -10 11 -10 2 0 4 5 4 10 0 6 -5 10 -11 10 -5 0
-7 -4 -4 -10z"/>
<path d="M3850 1751 c0 -9 30 -24 36 -18 2 1 -6 8 -16 15 -11 7 -20 8 -20 3z"/>
<path d="M1191 1734 c0 -11 3 -14 6 -6 3 7 2 16 -1 19 -3 4 -6 -2 -5 -13z"/>
<path d="M1182 1685 c0 -16 2 -22 5 -12 2 9 2 23 0 30 -3 6 -5 -1 -5 -18z"/>
<path d="M1167 1631 c-4 -17 -3 -21 5 -13 5 5 8 16 6 23 -3 8 -7 3 -11 -10z"/>
<path d="M1146 1585 c-3 -9 -6 -26 -5 -38 1 -14 4 -9 9 13 9 37 7 52 -4 25z"/>
<path d="M1132 1490 c0 -19 2 -27 5 -17 2 9 2 25 0 35 -3 9 -5 1 -5 -18z"/>
<path d="M1122 1430 c0 -14 2 -19 5 -12 2 6 2 18 0 25 -3 6 -5 1 -5 -13z"/>
<path d="M3560 1430 c-30 -30 -25 -110 6 -110 8 0 23 9 34 20 25 25 28 95 4
104 -22 8 -22 8 -44 -14z m50 -26 c0 -36 -17 -64 -40 -64 -23 0 -28 37 -10 71
16 29 50 25 50 -7z"/>
<path d="M3677 1143 c-4 -4 7 -13 24 -20 36 -15 42 -13 33 11 -6 16 -44 22
-57 9z"/>
<path d="M2760 1045 c0 -8 2 -15 4 -15 2 0 6 7 10 15 3 8 1 15 -4 15 -6 0 -10
-7 -10 -15z"/>
<path d="M2973 1053 c-7 -3 -13 -12 -13 -21 0 -15 2 -15 17 1 18 18 16 27 -4
20z"/>
<path d="M3843 1028 c-28 -37 -24 -78 8 -78 20 0 39 35 39 71 0 22 -32 26 -47
7z m37 -17 c0 -6 -4 -13 -10 -16 -5 -3 -10 -1 -10 6 0 7 -3 9 -6 6 -4 -4 -2
-13 4 -20 12 -14 7 -27 -10 -27 -10 0 -11 44 -1 53 10 10 33 8 33 -2z"/>
<path d="M3440 1000 c0 -5 5 -10 10 -10 6 0 10 5 10 10 0 6 -4 10 -10 10 -5 0
-10 -4 -10 -10z"/>
<path d="M3470 966 c-6 -9 -10 -21 -7 -28 4 -9 6 -7 6 4 1 9 7 18 14 21 6 2 9
7 6 11 -3 4 -12 0 -19 -8z"/>
<path d="M3505 970 c-3 -5 1 -10 10 -10 9 0 13 5 10 10 -3 6 -8 10 -10 10 -2
0 -7 -4 -10 -10z"/>
<path d="M3555 960 c-17 -8 -17 -9 7 -7 15 1 24 5 22 9 -3 4 -6 8 -7 7 -1 0
-11 -4 -22 -9z"/>
<path d="M3370 951 c0 -6 4 -13 10 -16 6 -3 7 1 4 9 -7 18 -14 21 -14 7z"/>
<path d="M3418 953 c7 -3 16 -2 19 1 4 3 -2 6 -13 5 -11 0 -14 -3 -6 -6z"/>
<path d="M3490 946 c0 -2 7 -7 16 -10 8 -3 12 -2 9 4 -6 10 -25 14 -25 6z"/>
<path d="M3592 920 c14 -22 24 -19 15 5 -4 8 -11 15 -17 15 -6 0 -6 -7 2 -20z"/>
<path d="M3545 920 c3 -5 11 -10 16 -10 6 0 7 5 4 10 -3 6 -11 10 -16 10 -6 0
-7 -4 -4 -10z"/>
<path d="M3710 895 c-8 -9 -8 -15 -2 -15 12 0 26 19 19 26 -2 2 -10 -2 -17
-11z"/>
<path d="M3741 897 c2 -1 13 -9 24 -17 19 -14 19 -14 6 3 -7 9 -18 17 -24 17
-6 0 -8 -1 -6 -3z"/>
<path d="M2960 869 c0 -5 5 -7 10 -4 6 3 10 8 10 11 0 2 -4 4 -10 4 -5 0 -10
-5 -10 -11z"/>
<path d="M3730 871 c0 -10 19 -25 25 -20 1 2 -3 10 -11 17 -8 7 -14 8 -14 3z"/>
<path d="M2950 844 c0 -5 -18 -24 -41 -41 -26 -20 -36 -34 -28 -38 6 -4 15 -1
21 6 7 11 9 9 7 -6 -3 -43 2 -50 16 -25 17 30 21 65 5 40 -5 -8 -10 -11 -10
-7 0 4 10 21 22 37 12 16 19 33 15 37 -4 3 -7 2 -7 -3z"/>
<path d="M3710 841 c0 -5 6 -11 14 -14 8 -3 16 -15 18 -26 2 -15 7 -18 18 -11
12 7 9 13 -13 34 -30 28 -37 31 -37 17z"/>
<path d="M3780 830 c-13 -8 -12 -10 3 -10 9 0 17 5 17 10 0 12 -1 12 -20 0z"/>
<path d="M3563 785 c-31 -30 -29 -45 7 -45 35 0 59 32 39 56 -15 18 -19 17
-46 -11z"/>
<path d="M3481 736 c-9 -11 -7 -15 11 -20 13 -3 32 -5 43 -5 16 0 14 3 -8 11
-15 5 -25 14 -21 19 9 14 -12 10 -25 -5z"/>
<path d="M3579 708 c15 -20 36 -23 46 -8 3 6 -1 7 -10 4 -8 -4 -23 0 -33 7
-15 13 -16 12 -3 -3z"/>
</g>
</svg>
